<svg width="444" height="167" viewBox="0 0 444 167" fill="none" xmlns="http://www.w3.org/2000/svg">
<rect width="444" height="167" rx="10" fill="#E21B70"/>
<path d="M424.283 13.5374L18.9563 9.82676C13.3979 9.77588 8.86475 14.2677 8.86475 19.8263V145.751C8.86475 151.274 13.3419 155.751 18.8647 155.751H330.076H410.238H424.192C429.715 155.751 434.192 151.274 434.192 145.751V23.537C434.192 18.0499 429.77 13.5877 424.283 13.5374Z" fill="#E21B70" stroke="white" stroke-width="4" stroke-linecap="round" stroke-linejoin="round"/>
<path d="M71.1655 63.271V92.626C71.1655 95.894 70.1585 98.516 68.1445 100.492C66.1305 102.43 63.4705 103.399 60.1645 103.399C56.8205 103.399 54.1415 102.411 52.1275 100.435C50.1135 98.421 49.1065 95.685 49.1065 92.227H54.2935C54.3315 94.165 54.8255 95.742 55.7755 96.958C56.7635 98.174 58.2265 98.782 60.1645 98.782C62.1025 98.782 63.5465 98.212 64.4965 97.072C65.4465 95.894 65.9215 94.412 65.9215 92.626V63.271H71.1655ZM95.0071 103.513C92.0811 103.513 89.4211 102.848 87.0271 101.518C84.6711 100.188 82.8091 98.307 81.4411 95.875C80.1111 93.405 79.4461 90.555 79.4461 87.325C79.4461 84.133 80.1301 81.321 81.4981 78.889C82.9041 76.419 84.8041 74.538 87.1981 73.246C89.5921 71.916 92.2711 71.251 95.2351 71.251C98.1991 71.251 100.878 71.916 103.272 73.246C105.666 74.538 107.547 76.4 108.915 78.832C110.321 81.264 111.024 84.095 111.024 87.325C111.024 90.555 110.302 93.405 108.858 95.875C107.452 98.307 105.533 100.188 103.101 101.518C100.669 102.848 97.9711 103.513 95.0071 103.513ZM95.0071 98.953C96.8691 98.953 98.6171 98.516 100.251 97.642C101.885 96.768 103.196 95.457 104.184 93.709C105.21 91.961 105.723 89.833 105.723 87.325C105.723 84.817 105.229 82.689 104.241 80.941C103.253 79.193 101.961 77.901 100.365 77.065C98.7691 76.191 97.0401 75.754 95.1781 75.754C93.2781 75.754 91.5301 76.191 89.9341 77.065C88.3761 77.901 87.1221 79.193 86.1721 80.941C85.2221 82.689 84.7471 84.817 84.7471 87.325C84.7471 89.871 85.2031 92.018 86.1151 93.766C87.0651 95.514 88.3191 96.825 89.8771 97.699C91.4351 98.535 93.1451 98.953 95.0071 98.953ZM120.523 66.691C119.535 66.691 118.699 66.349 118.015 65.665C117.331 64.981 116.989 64.145 116.989 63.157C116.989 62.169 117.331 61.333 118.015 60.649C118.699 59.965 119.535 59.623 120.523 59.623C121.473 59.623 122.271 59.965 122.917 60.649C123.601 61.333 123.943 62.169 123.943 63.157C123.943 64.145 123.601 64.981 122.917 65.665C122.271 66.349 121.473 66.691 120.523 66.691ZM123.031 71.764V103H117.844V71.764H123.031ZM147.09 71.194C150.89 71.194 153.968 72.353 156.324 74.671C158.68 76.951 159.858 80.257 159.858 84.589V103H154.728V85.33C154.728 82.214 153.949 79.839 152.391 78.205C150.833 76.533 148.705 75.697 146.007 75.697C143.271 75.697 141.086 76.552 139.452 78.262C137.856 79.972 137.058 82.461 137.058 85.729V103H131.871V71.764H137.058V76.21C138.084 74.614 139.471 73.379 141.219 72.505C143.005 71.631 144.962 71.194 147.09 71.194ZM211.23 71.764V103H206.043V98.383C205.055 99.979 203.668 101.233 201.882 102.145C200.134 103.019 198.196 103.456 196.068 103.456C193.636 103.456 191.451 102.962 189.513 101.974C187.575 100.948 186.036 99.428 184.896 97.414C183.794 95.4 183.243 92.949 183.243 90.061V71.764H188.373V89.377C188.373 92.455 189.152 94.83 190.71 96.502C192.268 98.136 194.396 98.953 197.094 98.953C199.868 98.953 202.053 98.098 203.649 96.388C205.245 94.678 206.043 92.189 206.043 88.921V71.764H211.23ZM231.046 103.513C228.652 103.513 226.505 103.114 224.605 102.316C222.705 101.48 221.204 100.34 220.102 98.896C219 97.414 218.392 95.723 218.278 93.823H223.636C223.788 95.381 224.51 96.654 225.802 97.642C227.132 98.63 228.861 99.124 230.989 99.124C232.965 99.124 234.523 98.687 235.663 97.813C236.803 96.939 237.373 95.837 237.373 94.507C237.373 93.139 236.765 92.132 235.549 91.486C234.333 90.802 232.452 90.137 229.906 89.491C227.588 88.883 225.688 88.275 224.206 87.667C222.762 87.021 221.508 86.09 220.444 84.874C219.418 83.62 218.905 81.986 218.905 79.972C218.905 78.376 219.38 76.913 220.33 75.583C221.28 74.253 222.629 73.208 224.377 72.448C226.125 71.65 228.12 71.251 230.362 71.251C233.82 71.251 236.613 72.125 238.741 73.873C240.869 75.621 242.009 78.015 242.161 81.055H236.974C236.86 79.421 236.195 78.11 234.979 77.122C233.801 76.134 232.205 75.64 230.191 75.64C228.329 75.64 226.847 76.039 225.745 76.837C224.643 77.635 224.092 78.68 224.092 79.972C224.092 80.998 224.415 81.853 225.061 82.537C225.745 83.183 226.581 83.715 227.569 84.133C228.595 84.513 230.001 84.95 231.787 85.444C234.029 86.052 235.853 86.66 237.259 87.268C238.665 87.838 239.862 88.712 240.85 89.89C241.876 91.068 242.408 92.607 242.446 94.507C242.446 96.217 241.971 97.756 241.021 99.124C240.071 100.492 238.722 101.575 236.974 102.373C235.264 103.133 233.288 103.513 231.046 103.513ZM280.183 71.194C283.983 71.194 287.061 72.353 289.417 74.671C291.773 76.951 292.951 80.257 292.951 84.589V103H287.821V85.33C287.821 82.214 287.042 79.839 285.484 78.205C283.926 76.533 281.798 75.697 279.1 75.697C276.364 75.697 274.179 76.552 272.545 78.262C270.949 79.972 270.151 82.461 270.151 85.729V103H264.964V71.764H270.151V76.21C271.177 74.614 272.564 73.379 274.312 72.505C276.098 71.631 278.055 71.194 280.183 71.194ZM315.047 103.513C312.121 103.513 309.461 102.848 307.067 101.518C304.711 100.188 302.849 98.307 301.481 95.875C300.151 93.405 299.486 90.555 299.486 87.325C299.486 84.133 300.17 81.321 301.538 78.889C302.944 76.419 304.844 74.538 307.238 73.246C309.632 71.916 312.311 71.251 315.275 71.251C318.239 71.251 320.918 71.916 323.312 73.246C325.706 74.538 327.587 76.4 328.955 78.832C330.361 81.264 331.064 84.095 331.064 87.325C331.064 90.555 330.342 93.405 328.898 95.875C327.492 98.307 325.573 100.188 323.141 101.518C320.709 102.848 318.011 103.513 315.047 103.513ZM315.047 98.953C316.909 98.953 318.657 98.516 320.291 97.642C321.925 96.768 323.236 95.457 324.224 93.709C325.25 91.961 325.763 89.833 325.763 87.325C325.763 84.817 325.269 82.689 324.281 80.941C323.293 79.193 322.001 77.901 320.405 77.065C318.809 76.191 317.08 75.754 315.218 75.754C313.318 75.754 311.57 76.191 309.974 77.065C308.416 77.901 307.162 79.193 306.212 80.941C305.262 82.689 304.787 84.817 304.787 87.325C304.787 89.871 305.243 92.018 306.155 93.766C307.105 95.514 308.359 96.825 309.917 97.699C311.475 98.535 313.185 98.953 315.047 98.953ZM379.494 71.764L369.747 103H364.389L356.865 78.205L349.341 103H343.983L334.179 71.764H339.48L346.662 97.984L354.414 71.764H359.715L367.296 98.041L374.364 71.764H379.494ZM391.368 63.271L390.741 91.771H386.409L385.782 63.271H391.368ZM388.803 103.342C387.815 103.342 386.979 103 386.295 102.316C385.611 101.632 385.269 100.796 385.269 99.808C385.269 98.82 385.611 97.984 386.295 97.3C386.979 96.616 387.815 96.274 388.803 96.274C389.753 96.274 390.551 96.616 391.197 97.3C391.881 97.984 392.223 98.82 392.223 99.808C392.223 100.796 391.881 101.632 391.197 102.316C390.551 103 389.753 103.342 388.803 103.342Z" fill="white"/>
</svg>
