<svg width="160" height="51" viewBox="0 0 160 51" fill="none" xmlns="http://www.w3.org/2000/svg">
<rect width="160" height="51" rx="10" fill="#E21B70"/>
<path d="M145.075 5.04589L15.0747 4.07522C9.52279 4.03377 5 8.52292 5 14.0749V36C5 41.5228 9.47716 46 15 46H118.282H146.552C151.218 46 155 42.2178 155 37.5521V15.0456C155 9.5519 150.568 5.08691 145.075 5.04589Z" fill="#E21B70" stroke="white" stroke-width="2" stroke-linecap="round" stroke-linejoin="round"/>
<path d="M32.3681 19.454V28.724C32.3681 29.756 32.0501 30.584 31.4141 31.208C30.7781 31.82 29.9381 32.126 28.8941 32.126C27.8381 32.126 26.9921 31.814 26.3561 31.19C25.7201 30.554 25.4021 29.69 25.4021 28.598H27.0401C27.0521 29.21 27.2081 29.708 27.5081 30.092C27.8201 30.476 28.2821 30.668 28.8941 30.668C29.5061 30.668 29.9621 30.488 30.2621 30.128C30.5621 29.756 30.7121 29.288 30.7121 28.724V19.454H32.3681ZM39.897 32.162C38.973 32.162 38.133 31.952 37.377 31.532C36.633 31.112 36.045 30.518 35.613 29.75C35.193 28.97 34.983 28.07 34.983 27.05C34.983 26.042 35.199 25.154 35.631 24.386C36.075 23.606 36.675 23.012 37.431 22.604C38.187 22.184 39.033 21.974 39.969 21.974C40.905 21.974 41.751 22.184 42.507 22.604C43.263 23.012 43.857 23.6 44.289 24.368C44.733 25.136 44.955 26.03 44.955 27.05C44.955 28.07 44.727 28.97 44.271 29.75C43.827 30.518 43.221 31.112 42.453 31.532C41.685 31.952 40.833 32.162 39.897 32.162ZM39.897 30.722C40.485 30.722 41.037 30.584 41.553 30.308C42.069 30.032 42.483 29.618 42.795 29.066C43.119 28.514 43.281 27.842 43.281 27.05C43.281 26.258 43.125 25.586 42.813 25.034C42.501 24.482 42.093 24.074 41.589 23.81C41.085 23.534 40.539 23.396 39.951 23.396C39.351 23.396 38.799 23.534 38.295 23.81C37.803 24.074 37.407 24.482 37.107 25.034C36.807 25.586 36.657 26.258 36.657 27.05C36.657 27.854 36.801 28.532 37.089 29.084C37.389 29.636 37.785 30.05 38.277 30.326C38.769 30.59 39.309 30.722 39.897 30.722ZM47.9547 20.534C47.6427 20.534 47.3787 20.426 47.1627 20.21C46.9467 19.994 46.8387 19.73 46.8387 19.418C46.8387 19.106 46.9467 18.842 47.1627 18.626C47.3787 18.41 47.6427 18.302 47.9547 18.302C48.2547 18.302 48.5067 18.41 48.7107 18.626C48.9267 18.842 49.0347 19.106 49.0347 19.418C49.0347 19.73 48.9267 19.994 48.7107 20.21C48.5067 20.426 48.2547 20.534 47.9547 20.534ZM48.7467 22.136V32H47.1087V22.136H48.7467ZM56.3443 21.956C57.5443 21.956 58.5163 22.322 59.2603 23.054C60.0043 23.774 60.3763 24.818 60.3763 26.186V32H58.7563V26.42C58.7563 25.436 58.5103 24.686 58.0183 24.17C57.5263 23.642 56.8543 23.378 56.0023 23.378C55.1383 23.378 54.4483 23.648 53.9323 24.188C53.4283 24.728 53.1763 25.514 53.1763 26.546V32H51.5383V22.136H53.1763V23.54C53.5003 23.036 53.9383 22.646 54.4903 22.37C55.0543 22.094 55.6723 21.956 56.3443 21.956ZM76.5988 22.136V32H74.9608V30.542C74.6488 31.046 74.2108 31.442 73.6468 31.73C73.0948 32.006 72.4828 32.144 71.8108 32.144C71.0428 32.144 70.3528 31.988 69.7408 31.676C69.1288 31.352 68.6428 30.872 68.2828 30.236C67.9348 29.6 67.7608 28.826 67.7608 27.914V22.136H69.3808V27.698C69.3808 28.67 69.6268 29.42 70.1188 29.948C70.6108 30.464 71.2828 30.722 72.1348 30.722C73.0108 30.722 73.7008 30.452 74.2048 29.912C74.7088 29.372 74.9608 28.586 74.9608 27.554V22.136H76.5988ZM82.8565 32.162C82.1005 32.162 81.4225 32.036 80.8225 31.784C80.2225 31.52 79.7485 31.16 79.4005 30.704C79.0525 30.236 78.8605 29.702 78.8245 29.102H80.5165C80.5645 29.594 80.7925 29.996 81.2005 30.308C81.6205 30.62 82.1665 30.776 82.8385 30.776C83.4625 30.776 83.9545 30.638 84.3145 30.362C84.6745 30.086 84.8545 29.738 84.8545 29.318C84.8545 28.886 84.6625 28.568 84.2785 28.364C83.8945 28.148 83.3005 27.938 82.4965 27.734C81.7645 27.542 81.1645 27.35 80.6965 27.158C80.2405 26.954 79.8445 26.66 79.5085 26.276C79.1845 25.88 79.0225 25.364 79.0225 24.728C79.0225 24.224 79.1725 23.762 79.4725 23.342C79.7725 22.922 80.1985 22.592 80.7505 22.352C81.3025 22.1 81.9325 21.974 82.6405 21.974C83.7325 21.974 84.6145 22.25 85.2865 22.802C85.9585 23.354 86.3185 24.11 86.3665 25.07H84.7285C84.6925 24.554 84.4825 24.14 84.0985 23.828C83.7265 23.516 83.2225 23.36 82.5865 23.36C81.9985 23.36 81.5305 23.486 81.1825 23.738C80.8345 23.99 80.6605 24.32 80.6605 24.728C80.6605 25.052 80.7625 25.322 80.9665 25.538C81.1825 25.742 81.4465 25.91 81.7585 26.042C82.0825 26.162 82.5265 26.3 83.0905 26.456C83.7985 26.648 84.3745 26.84 84.8185 27.032C85.2625 27.212 85.6405 27.488 85.9525 27.86C86.2765 28.232 86.4445 28.718 86.4565 29.318C86.4565 29.858 86.3065 30.344 86.0065 30.776C85.7065 31.208 85.2805 31.55 84.7285 31.802C84.1885 32.042 83.5645 32.162 82.8565 32.162ZM98.3736 21.956C99.5736 21.956 100.546 22.322 101.29 23.054C102.034 23.774 102.406 24.818 102.406 26.186V32H100.786V26.42C100.786 25.436 100.54 24.686 100.048 24.17C99.5556 23.642 98.8836 23.378 98.0316 23.378C97.1676 23.378 96.4776 23.648 95.9616 24.188C95.4576 24.728 95.2056 25.514 95.2056 26.546V32H93.5676V22.136H95.2056V23.54C95.5296 23.036 95.9676 22.646 96.5196 22.37C97.0836 22.094 97.7016 21.956 98.3736 21.956ZM109.383 32.162C108.459 32.162 107.619 31.952 106.863 31.532C106.119 31.112 105.531 30.518 105.099 29.75C104.679 28.97 104.469 28.07 104.469 27.05C104.469 26.042 104.685 25.154 105.117 24.386C105.561 23.606 106.161 23.012 106.917 22.604C107.673 22.184 108.519 21.974 109.455 21.974C110.391 21.974 111.237 22.184 111.993 22.604C112.749 23.012 113.343 23.6 113.775 24.368C114.219 25.136 114.441 26.03 114.441 27.05C114.441 28.07 114.213 28.97 113.757 29.75C113.313 30.518 112.707 31.112 111.939 31.532C111.171 31.952 110.319 32.162 109.383 32.162ZM109.383 30.722C109.971 30.722 110.523 30.584 111.039 30.308C111.555 30.032 111.969 29.618 112.281 29.066C112.605 28.514 112.767 27.842 112.767 27.05C112.767 26.258 112.611 25.586 112.299 25.034C111.987 24.482 111.579 24.074 111.075 23.81C110.571 23.534 110.025 23.396 109.437 23.396C108.837 23.396 108.285 23.534 107.781 23.81C107.289 24.074 106.893 24.482 106.593 25.034C106.293 25.586 106.143 26.258 106.143 27.05C106.143 27.854 106.287 28.532 106.575 29.084C106.875 29.636 107.271 30.05 107.763 30.326C108.255 30.59 108.795 30.722 109.383 30.722ZM129.735 22.136L126.657 32H124.965L122.589 24.17L120.213 32H118.521L115.425 22.136H117.099L119.367 30.416L121.815 22.136H123.489L125.883 30.434L128.115 22.136H129.735ZM133.485 19.454L133.287 28.454H131.919L131.721 19.454H133.485ZM132.675 32.108C132.363 32.108 132.099 32 131.883 31.784C131.667 31.568 131.559 31.304 131.559 30.992C131.559 30.68 131.667 30.416 131.883 30.2C132.099 29.984 132.363 29.876 132.675 29.876C132.975 29.876 133.227 29.984 133.431 30.2C133.647 30.416 133.755 30.68 133.755 30.992C133.755 31.304 133.647 31.568 133.431 31.784C133.227 32 132.975 32.108 132.675 32.108Z" fill="white"/>
</svg>
